<?xml version="1.0" encoding="iso-8859-1"?>
<!-- Generator: Adobe Illustrator 22.1.0, SVG Export Plug-In . SVG Version: 6.00 Build 0)  -->
<svg version="1.1" id="Capa_1" xmlns="http://www.w3.org/2000/svg" xmlns:xlink="http://www.w3.org/1999/xlink" x="0px" y="0px"
	 viewBox="-49 141 512 512" style="enable-background:new -49 141 512 512;" xml:space="preserve" width="74px">
<path fill="#edbd70" d="M45.465,590.157c0.112,1.687,0.791,3.285,1.927,4.538c0.636,0.701,15.926,17.36,46.437,32.741
	c3.698,1.865,8.209,0.377,10.073-3.321c1.865-3.699,0.378-8.209-3.321-10.074c-22.264-11.223-35.753-23.231-40.323-27.655
	c-0.396-6.718-0.607-13.423-0.631-20.065c0.563,0.449,1.152,0.91,1.754,1.377c8.236,6.392,17.048,12.056,26.199,17.047
	c43.671,23.836,89.045,28.839,119.42,28.839c36.413,0,72.954-6.867,106.106-22.176c14.634-6.758,28.657-15.019,41.269-25.086
	c-0.026,6.641-0.237,13.348-0.634,20.07c-9.547,9.255-58.111,51.609-146.741,51.609c-28.332,0-55.255-4.324-80.024-12.853
	c-3.917-1.349-8.185,0.733-9.533,4.649c-1.349,3.917,0.733,8.185,4.649,9.533C148.436,648.401,177.003,653,207,653
	c55.031,0,95.315-15.683,119.419-28.839c26.39-14.403,39.639-28.861,40.19-29.47c1.135-1.253,1.813-2.852,1.925-4.538
	c0.896-13.484,1.079-26.944,0.542-40.006c-2.855-69.642-25.794-121.249-44.536-152.278c-16.362-27.09-32.234-43.487-38.332-49.31
	v-25.807c22.269-19.847,31.436-44.796,35.194-62.544c2.405-11.346-0.296-23.079-7.41-32.191c-4.021-5.149-9.197-9.132-15.03-11.7
	c-0.704-38.715-19.213-70.271-20.038-71.655c-2.117-3.556-6.715-4.724-10.273-2.611l-25.418,15.096
	c-3.536,2.1-4.71,6.675-2.646,10.232c0.142,0.245,13.292,23.227,13.82,49.544c-22.626,6.745-39.184,20.509-47.407,28.567
	c-8.223-8.058-24.776-21.813-47.404-28.557c0.525-26.322,13.672-49.304,13.797-49.52c2.104-3.561,0.93-8.152-2.626-10.265
	l-25.419-15.095c-3.559-2.114-8.156-0.944-10.273,2.61c-0.825,1.384-19.334,32.94-20.039,71.656
	c-5.833,2.567-11.009,6.55-15.029,11.699c-7.115,9.112-9.815,20.845-7.411,32.189c3.758,17.751,12.926,42.7,35.194,62.546v25.806
	c-6.092,5.818-21.944,22.193-38.291,49.243C70.772,428.79,47.84,480.326,44.943,549.88C44.385,563.04,44.561,576.591,45.465,590.157
	z M269.303,213.748c-1.005-20.216-8.037-38.057-12.368-47.291l12.602-7.484c4.865,10.017,13.169,30.307,14.326,54.028
	c-0.42-0.012-0.836-0.005-1.254-0.011c-4.377-0.066-8.824,0.236-13.204,0.748C269.37,213.741,269.337,213.744,269.303,213.748z
	 M144.462,158.973l12.6,7.483c-4.334,9.23-11.365,27.06-12.367,47.292c-1.034-0.135-14.53-1.339-14.559-0.747
	C131.292,189.28,139.598,168.99,144.462,158.973z M107.27,257.099c-1.484-7.002,0.177-14.236,4.559-19.849
	c7.103-9.098,17.925-9.986,28.619-8.889c36.317,3.719,60.491,32.526,60.746,32.834c2.974,3.599,8.645,3.623,11.609,0.001
	c0.237-0.29,21.148-25.399,53.58-31.772c12.233-2.404,27.275-3.073,35.785,7.826c4.382,5.612,6.043,12.847,4.559,19.851
	c-3.345,15.801-11.534,38.084-31.545,55.381c-0.07,0.017-0.128,0.032-0.203,0.05c-0.038,0.009-0.081,0.02-0.12,0.029
	c-23.401,5.814-47.566,9.605-71.735,9.072c-21.652-0.477-43.313-3.973-64.31-9.153C118.807,295.185,110.616,272.901,107.27,257.099z
	 M101.997,406.124c14.896-24.781,29.561-40.271,35.47-46.043c0.039,0.009,0.085,0.019,0.125,0.029
	c19.237,4.456,39.194,7.577,59,8.489c11.035,0.508,22.083,0.139,33.078-0.893c4.124-0.388,7.153-4.044,6.766-8.168
	c-0.388-4.124-4.045-7.153-8.169-6.766c-15.253,1.432-30.46,1.297-45.694-0.32c-13.059-1.381-26.044-3.55-38.872-6.354
	c-0.304-0.066-0.608-0.134-0.911-0.201V328.82c9.642,2.133,25.615,5.233,43.045,6.828c28.727,2.628,57.293-0.615,85.373-6.828v17.08
	c-0.275,0.062-0.567,0.126-0.86,0.19c-4.409,0.964-8.825,1.917-13.278,2.659c-4.744,0.86-7.49,6.228-5.436,10.579
	c1.414,2.997,4.701,4.801,8.115,4.18c3.962-0.719,7.928-1.49,11.853-2.339c1.643-0.354,3.285-0.714,4.924-1.09
	c13.355,13.07,71.541,76.105,77.378,186.734c-3.65,3.553-13.765,12.667-30.383,22.277c-1.413-15.402-5.357-35.55-15.07-57.965
	c-1.647-3.8-6.063-5.547-9.864-3.899c-3.801,1.646-5.547,6.063-3.9,9.863c10.363,23.916,13.607,44.936,14.344,59.604
	c-18.086,8.586-41.474,16.489-70.208,19.991c-8.074,0.984-16.194,1.568-24.325,1.79v-74.261c0-4.142-3.358-7.5-7.5-7.5
	s-7.5,3.358-7.5,7.5v74.259c-41.136-1.138-72.876-11.467-94.536-21.71c0.73-14.67,3.968-35.718,14.347-59.672
	c1.647-3.801-0.099-8.217-3.9-9.863c-3.802-1.646-8.216,0.1-9.864,3.899c-9.726,22.446-13.667,42.618-15.082,58.024
	c-10.849-6.293-21.256-13.552-30.302-22.271c-0.02-0.02-0.04-0.039-0.06-0.058C63.488,482.618,84.655,434.975,101.997,406.124z"/>
</svg>
