<?xml version="1.0" encoding="iso-8859-1"?>
<!-- Generator: Adobe Illustrator 22.1.0, SVG Export Plug-In . SVG Version: 6.00 Build 0)  -->
<svg version="1.1" id="Capa_1" xmlns="http://www.w3.org/2000/svg" xmlns:xlink="http://www.w3.org/1999/xlink" x="0px" y="0px"
	 viewBox="-49 141 512 512" style="enable-background:new -49 141 512 512;" xml:space="preserve" width="63px">
<path fill="#edbd70" d="M-1,533h232v96c0.001,4.418,3.583,7.999,8.002,7.998c2.121,0,4.154-0.843,5.654-2.342L287,592.312l42.344,42.344
	c1.5,1.5,3.534,2.344,5.656,2.344c1.052,0.003,2.093-0.203,3.064-0.608c2.989-1.239,4.937-4.156,4.936-7.392v-96h24
	c17.673,0,32-14.327,32-32V245h40c4.418,0,8-3.582,8-8c0-17.673-14.327-32-32-32H47c-17.673,0-32,14.327-32,32v256h-40
	c-4.418,0-8,3.582-8,8C-33,518.673-18.673,533-1,533z M428.848,229h-27.696c4.426-7.648,14.215-10.26,21.863-5.833
	C425.436,224.568,427.447,226.579,428.848,229L428.848,229z M23,509h192c4.418,0,8-3.582,8-8l0,0c0-4.418-3.582-8-8-8H31V237
	c0-8.837,7.163-16,16-16h340.448c-2.879,4.843-4.415,10.366-4.448,16v256h-24c-4.418,0-8,3.582-8,8l0,0c0,4.418,3.582,8,8,8h21.848
	c-2.857,4.948-8.135,7.997-13.848,8h-24l0,0c0-4.418-3.582-8-8-8l0,0c-4.418,0-8,3.582-8,8v92.688l-34.344-34.344
	c-3.124-3.123-8.188-3.123-11.312,0L247,609.688V517c0-4.418-3.582-8-8-8h0c-4.418,0-8,3.582-8,8l0,0H-1
	c-5.713-0.003-10.991-3.052-13.848-8H23z"/>
<path fill="#edbd70" d="M236.744,496.2c0.521,4.387,4.501,7.521,8.888,7c0.204-0.024,0.407-0.056,0.608-0.096l20.624-4.088l14.264,15.448
	c3.001,3.243,8.062,3.439,11.305,0.439c0.152-0.141,0.298-0.287,0.439-0.439l14.264-15.448l20.624,4.088
	c2.186,0.447,4.459-0.053,6.256-1.376c1.788-1.318,2.947-3.321,3.2-5.528l2.464-20.88l19.096-8.76
	c4.017-1.839,5.783-6.587,3.944-10.604c-0.093-0.203-0.194-0.402-0.304-0.596L352.168,437l10.288-18.344
	c2.168-3.85,0.805-8.728-3.044-10.896c-0.194-0.109-0.393-0.211-0.596-0.304l-19.096-8.744l-2.464-20.88
	c-0.521-4.387-4.501-7.521-8.888-7c-0.204,0.024-0.407,0.056-0.608,0.096l-20.624,4.088l-14.264-15.448
	c-3.193-3.243-8.41-3.284-11.653-0.091c-0.031,0.03-0.061,0.061-0.091,0.091l-14.264,15.448l-20.624-4.088
	c-4.334-0.857-8.543,1.962-9.4,6.296c-0.04,0.201-0.072,0.404-0.096,0.608l-2.464,20.88l-19.096,8.76
	c-4.017,1.839-5.783,6.587-3.944,10.604c0.093,0.203,0.194,0.402,0.304,0.596L221.832,437l-10.288,18.344
	c-2.168,3.85-0.805,8.728,3.044,10.896c0.194,0.109,0.393,0.211,0.596,0.304l19.096,8.76L236.744,496.2z M237.976,433.12
	l-8.232-14.688l15.296-7.016c2.536-1.164,4.282-3.565,4.608-6.336l1.968-16.744l16.536,3.272c2.724,0.559,5.542-0.352,7.424-2.4
	L287,376.8l11.424,12.368c1.877,2.055,4.699,2.967,7.424,2.4l16.536-3.272l1.968,16.744c0.326,2.771,2.072,5.172,4.608,6.336
	l15.296,7.016l-8.232,14.688c-1.362,2.43-1.362,5.394,0,7.824l8.232,14.688l-15.296,7.016c-2.536,1.164-4.282,3.565-4.608,6.336
	l-1.968,16.744l-16.536-3.272c-2.725-0.566-5.546,0.346-7.424,2.4L287,497.2l-11.424-12.368c-1.514-1.637-3.642-2.568-5.872-2.568
	c-0.522-0.003-1.042,0.051-1.552,0.16l-16.536,3.272l-1.968-16.744c-0.326-2.771-2.072-5.172-4.608-6.336l-15.296-7.016
	l8.232-14.688c1.376-2.44,1.409-5.403,0-7.824L237.976,433.12z"/>
<path fill="#edbd70" d="M287,477c22.091,0,40-17.909,40-40s-17.909-40-40-40s-40,17.909-40,40C247.026,459.08,264.92,476.974,287,477z M287,413
	c13.255,0,24,10.745,24,24s-10.745,24-24,24s-24-10.745-24-24S273.745,413,287,413z"/>
<path fill="#edbd70" d="M151,253h112c4.418,0,8,3.582,8,8l0,0c0,4.418-3.582,8-8,8H151c-4.418,0-8-3.582-8-8l0,0C143,256.582,146.582,253,151,253z"
	/>
<path fill="#edbd70" d="M71,301h272c4.418,0,8,3.582,8,8l0,0c0,4.418-3.582,8-8,8H71c-4.418,0-8-3.582-8-8l0,0C63,304.582,66.582,301,71,301z"/>
<path fill="#edbd70" d="M71,333h272c4.418,0,8,3.582,8,8l0,0c0,4.418-3.582,8-8,8H71c-4.418,0-8-3.582-8-8l0,0C63,336.582,66.582,333,71,333z"/>
<path fill="#edbd70" d="M79,437h88c4.418,0,8,3.582,8,8l0,0c0,4.418-3.582,8-8,8H79c-4.418,0-8-3.582-8-8l0,0C71,440.582,74.582,437,79,437z"/>
</svg>
