<?xml version="1.0" encoding="iso-8859-1"?>
<!-- Generator: Adobe Illustrator 22.1.0, SVG Export Plug-In . SVG Version: 6.00 Build 0)  -->
<svg version="1.1" id="Capa_1" xmlns="http://www.w3.org/2000/svg" xmlns:xlink="http://www.w3.org/1999/xlink" x="0px" y="0px"
	 viewBox="-49 173 512 448" style="enable-background:new -49 173 512 448;" xml:space="preserve">
<path d="M239,621c-5.891,0-10.667-4.776-10.667-10.667v-32H89.667c-17.673,0-32-14.327-32-32V525
	c0-5.891,4.776-10.667,10.667-10.667h0C74.224,514.333,79,519.109,79,525v21.333C79,552.224,83.776,557,89.667,557H239
	c5.891,0,10.667,4.776,10.667,10.667v16.917l24.459-24.459c2-2.001,4.713-3.125,7.541-3.125H431c5.891,0,10.667-4.776,10.667-10.667
	v-256c0-5.891-4.776-10.667-10.667-10.667h-42.667c-5.891,0-10.667-4.776-10.667-10.667l0,0c0-5.891,4.776-10.667,10.667-10.667H431
	c17.673,0,32,14.327,32,32v256c0,17.673-14.327,32-32,32H286.083l-39.541,39.541C244.541,619.875,241.829,620.999,239,621L239,621z"
	/>
<path d="M143,535.667c-5.891,0-10.667-4.776-10.667-10.667v-32H-17c-17.673,0-32-14.327-32-32V205c0-17.673,14.327-32,32-32h341.333
	c17.673,0,32,14.327,32,32v256c0,17.673-14.327,32-32,32H190.083l-39.541,39.541C148.541,534.542,145.829,535.666,143,535.667
	L143,535.667z M-17,194.333c-5.891,0-10.667,4.776-10.667,10.667v256c0,5.891,4.776,10.667,10.667,10.667h160
	c5.891,0,10.667,4.776,10.667,10.667v16.917l24.459-24.459c2-2.001,4.713-3.125,7.541-3.125h138.667
	c5.891,0,10.667-4.776,10.667-10.667V205c0-5.891-4.776-10.667-10.667-10.667H-17z"/>
<path d="M15,258.333h96c5.891,0,10.667,4.776,10.667,10.667l0,0c0,5.891-4.776,10.667-10.667,10.667H15
	c-5.891,0-10.667-4.776-10.667-10.667l0,0C4.333,263.109,9.109,258.333,15,258.333z"/>
<path d="M15,322.333h277.333c5.891,0,10.667,4.776,10.667,10.667v0c0,5.891-4.776,10.667-10.667,10.667H15
	c-5.891,0-10.667-4.776-10.667-10.667v0C4.333,327.109,9.109,322.333,15,322.333z"/>
<path d="M15,386.333h277.333c5.891,0,10.667,4.776,10.667,10.667v0c0,5.891-4.776,10.667-10.667,10.667H15
	c-5.891,0-10.667-4.776-10.667-10.667v0C4.333,391.109,9.109,386.333,15,386.333z"/>
<path d="M292.333,258.333L292.333,258.333c5.891,0,10.667,4.776,10.667,10.667l0,0c0,5.891-4.776,10.667-10.667,10.667l0,0
	c-5.891,0-10.667-4.776-10.667-10.667l0,0C281.667,263.109,286.442,258.333,292.333,258.333z"/>
<path d="M249.667,258.333L249.667,258.333c5.891,0,10.667,4.776,10.667,10.667l0,0c0,5.891-4.776,10.667-10.667,10.667h0
	c-5.891,0-10.667-4.776-10.667-10.667l0,0C239,263.109,243.776,258.333,249.667,258.333z"/>
</svg>
