<?xml version="1.0" encoding="iso-8859-1"?>
<!-- Generator: Adobe Illustrator 22.1.0, SVG Export Plug-In . SVG Version: 6.00 Build 0)  -->
<svg version="1.1" id="Capa_1" xmlns="http://www.w3.org/2000/svg" xmlns:xlink="http://www.w3.org/1999/xlink" x="0px" y="0px"
	 viewBox="-49 141 512 512" style="enable-background:new -49 141 512 512;" xml:space="preserve">
<path d="M310,393c5.52,0,10-4.48,10-10s-4.48-10-10-10s-10,4.48-10,10S304.48,393,310,393z"/>
<path d="M44,201c5.52,0,10-4.48,10-10s-4.48-10-10-10s-10,4.48-10,10S38.48,201,44,201z"/>
<path d="M74,241c8.495,0,83-0.842,83-30c0-24.884-55.569-29.094-72.601-29.792c-5.527-0.221-10.175,4.065-10.4,9.583
	c-0.227,5.518,4.063,10.175,9.582,10.401c26.499,1.085,44.157,6.191,51.06,9.864C126.63,215.406,104.628,221,74,221
	c-32,0-54.584-6.106-61.632-10.521c2.211-3.816,1.691-8.784-1.567-12.06c-3.895-3.917-10.226-3.934-14.143-0.04
	C-8.019,203.031-9,207.81-9,211C-9,240.158,65.505,241,74,241z"/>
<path d="M-49,211c0,138.469,0,297.304,0,372c0,43.832,45.981,70,123,70s123-26.168,123-70c0-40.138,0-323.759,0-372
	c0-43.832-45.981-70-123-70S-49,167.168-49,211z M177,271c0,15.08-8.447,27.373-25.107,36.537C133.503,317.653,106.568,323,74,323
	c-64.495,0-103-18.691-103-50v-19.366C-8.524,271.231,26.944,281,74,281s82.524-9.769,103-27.366V271z M177,521
	c0,31.309-38.505,50-103,50s-103-18.691-103-50v-19.366C-8.524,519.231,26.944,529,74,529s82.524-9.769,103-27.366V521z M177,459
	c0,31.309-38.505,50-103,50s-103-18.691-103-50v-19.366C-8.524,457.231,26.944,467,74,467s82.524-9.769,103-27.366V459z M177,397
	c0,31.309-38.505,50-103,50s-103-18.691-103-50v-19.366C-8.524,395.231,26.944,405,74,405s82.524-9.769,103-27.366V397z M74,385
	c-64.495,0-103-18.691-103-50v-19.366C-8.524,333.231,26.944,343,74,343c46.595,0,82.344-10.409,103-28.727V335
	C177,366.309,138.495,385,74,385z M74,633c-64.495,0-103-18.691-103-50v-19.366C-8.524,581.231,26.944,591,74,591
	s82.524-9.769,103-27.366V583C177,614.309,138.495,633,74,633z M74,161c64.495,0,103,18.691,103,50s-38.505,50-103,50
	s-103-18.691-103-50S9.505,161,74,161z"/>
<path d="M340,433c8.495,0,83-0.842,83-30c0-24.884-55.569-29.094-72.601-29.792c-5.549-0.227-10.175,4.064-10.4,9.583
	c-0.227,5.518,4.063,10.175,9.582,10.401c26.499,1.085,44.157,6.191,51.06,9.864C392.63,407.406,370.628,413,340,413
	c-32,0-54.584-6.106-61.632-10.521c2.211-3.816,1.691-8.784-1.567-12.06c-3.895-3.917-10.227-3.934-14.143-0.04
	C257.981,395.031,257,399.81,257,403C257,432.158,331.505,433,340,433z"/>
<path d="M463,403c0-43.832-45.981-70-123-70s-123,26.168-123,70c0,36.04,0,144.089,0,180c0,43.832,45.981,70,123,70
	s123-26.168,123-70C463,546.96,463,438.911,463,403z M443,463c0,31.309-38.505,50-103,50s-103-18.691-103-50v-17.366
	C257.476,463.231,292.944,473,340,473s82.524-9.769,103-27.366V463z M237,505.634C257.476,523.231,292.944,533,340,533
	s82.524-9.769,103-27.366V523c0,31.309-38.505,50-103,50s-103-18.691-103-50V505.634z M340,353c64.495,0,103,18.691,103,50
	s-38.505,50-103,50s-103-18.691-103-50S275.505,353,340,353z M340,633c-64.495,0-103-18.691-103-50v-17.366
	C257.476,583.231,292.944,593,340,593s82.524-9.769,103-27.366V583C443,614.309,404.495,633,340,633z"/>
</svg>
