<?xml version="1.0" encoding="iso-8859-1"?>
<!-- Generator: Adobe Illustrator 22.1.0, SVG Export Plug-In . SVG Version: 6.00 Build 0)  -->
<svg version="1.1" id="Layer_1" xmlns="http://www.w3.org/2000/svg" xmlns:xlink="http://www.w3.org/1999/xlink" x="0px" y="0px"
	 viewBox="-49 246.81 512 300.38" style="enable-background:new -49 246.81 512 300.38;" xml:space="preserve" width="80px">
<g>
	<path fill="#edbd70" d="M456.92,392.06l-30.29-17.59l-17.07-72.95c-4.28-18.28-20.39-31.05-39.16-31.05h-86.89V255c0-4.52-3.68-8.19-8.2-8.19
		H-38.8c-4.52,0-8.2,3.67-8.2,8.19v243.12c0,4.52,3.68,8.2,8.2,8.2h34.41l0.33,1.6c4.63,22.75,24.85,39.27,48.09,39.27
		c23.23,0,43.46-16.52,48.09-39.27l0.33-1.6h209.74l0.33,1.6c4.63,22.76,24.85,39.27,48.09,39.27c23.23,0,43.46-16.51,48.09-39.27
		l0.32-1.6h53.78c4.52,0,8.2-3.68,8.2-8.2v-98.97C461,396.24,459.44,393.52,456.92,392.06z M44.03,530.79
		c-18.02,0-32.68-14.65-32.68-32.67s14.66-32.68,32.68-32.68c18.02,0,32.68,14.66,32.68,32.68S62.05,530.79,44.03,530.79z
		 M267.11,453.34h-93.99c-4.53,0-8.2,3.68-8.2,8.2c0,4.52,3.67,8.2,8.2,8.2h93.99v20.18H92.45l-0.33-1.6
		c-4.63-22.76-24.86-39.28-48.09-39.28c-23.24,0-43.46,16.52-48.09,39.28l-0.33,1.6H-30.6v-56.75h297.71V453.34z M267.11,416.77
		H-30.6V263.21h297.71V416.77z M342.67,286.87h27.73c11.12,0,20.66,7.56,23.19,18.39l15.52,66.33h-66.44V286.87z M350.61,530.79
		c-17.15,0-31.47-13.39-32.6-30.5l-0.02-0.27l0.06-0.26c0.11-0.54,0.16-1.09,0.16-1.64s-0.05-1.11-0.16-1.65l-0.06-0.26l0.02-0.27
		c1.13-17.1,15.45-30.5,32.6-30.5c18.02,0,32.68,14.66,32.68,32.68S368.63,530.79,350.61,530.79z M444.6,441.51h-23.4v-14.8h23.4
		V441.51z M444.6,410.32H413c-4.52,0-8.2,3.67-8.2,8.2v31.19c0,4.52,3.68,8.2,8.2,8.2h31.6v32.01h-45.57l-0.33-1.6
		c-4.63-22.76-24.86-39.28-48.09-39.28c-23.24,0-43.46,16.52-48.09,39.28l-0.33,1.6h-18.68V286.87h42.76v92.92
		c0,4.52,3.68,8.2,8.2,8.2h82.78l27.35,15.88V410.32z"/>
</g>
<g>
	<path fill="#edbd70" d="M146.89,461.54c0,4.52-3.68,8.2-8.2,8.2h-8.6c-4.52,0-8.2-3.68-8.2-8.2c0-4.52,3.68-8.2,8.2-8.2h8.6
		C143.21,453.34,146.89,457.02,146.89,461.54z"/>
</g>
</svg>
