<?xml version="1.0" encoding="iso-8859-1"?>
<!-- Generator: Adobe Illustrator 22.1.0, SVG Export Plug-In . SVG Version: 6.00 Build 0)  -->
<svg version="1.1" id="Layer_1" xmlns="http://www.w3.org/2000/svg" xmlns:xlink="http://www.w3.org/1999/xlink" x="0px" y="0px"
	 viewBox="-49 141 512 512" style="enable-background:new -49 141 512 512;" xml:space="preserve" width="77px">
<path fill="#edbd70" d="M457.135,362.963l-87.197-98.667c-1.898-2.148-4.627-3.378-7.493-3.378H51.556c-2.866,0-5.595,1.23-7.493,3.378
	l-87.198,98.667c-2.604,2.947-3.239,7.146-1.623,10.732c0.609,1.352,1.497,2.52,2.577,3.453c0.021,0.023,0.037,0.049,0.058,0.073
	l241.642,272.415c1.898,2.14,4.621,3.364,7.481,3.364c2.86,0,5.583-1.225,7.481-3.364l241.642-272.415
	c0.021-0.023,0.038-0.049,0.058-0.073c1.079-0.933,1.967-2.102,2.577-3.453C460.374,370.109,459.739,365.91,457.135,362.963z
	 M207,287.102l72.054,72.483H134.946L207,287.102z M113.728,352.562l-44.441-71.644h115.661L113.728,352.562z M229.052,280.917
	h115.661l-44.441,71.644L229.052,280.917z M104.887,379.585l81.636,225.261L-13.291,379.585H104.887z M278.972,437.21
	c-5.183-1.916-10.933,0.733-12.846,5.914l-59.035,159.777L126.16,379.585h301.131L227.848,604.428l57.038-154.372
	C286.8,444.875,284.152,439.124,278.972,437.21z M319.451,359.585l44.545-71.811l63.463,71.811H319.451L319.451,359.585z
	 M50.004,287.774l44.545,71.811H-13.459L50.004,287.774z"/>
<path fill="#edbd70" d="M207,212.513c5.522,0,10-4.477,10-10V151c0-5.523-4.478-10-10-10s-10,4.477-10,10v51.513
	C197,208.036,201.478,212.513,207,212.513z"/>
<path fill="#edbd70" d="M254.565,234.02c2.559,0,5.118-0.977,7.071-2.929l36.426-36.425c3.905-3.905,3.905-10.237,0-14.142
	c-3.905-3.905-10.235-3.905-14.143,0l-36.426,36.425c-3.905,3.905-3.905,10.237,0,14.142
	C249.447,233.044,252.006,234.02,254.565,234.02z"/>
<path fill="#edbd70" d="M150.416,231.091c1.953,1.953,4.512,2.929,7.071,2.929s5.118-0.977,7.071-2.929c3.905-3.905,3.905-10.237,0-14.142
	l-36.425-36.425c-3.904-3.905-10.234-3.905-14.143,0c-3.905,3.905-3.905,10.237,0,14.142L150.416,231.091z"/>
<circle fill="#edbd70" cx="288.43" cy="409.36" r="10"/>
</svg>
