<?xml version="1.0" encoding="iso-8859-1"?>
<!-- Generator: Adobe Illustrator 22.1.0, SVG Export Plug-In . SVG Version: 6.00 Build 0)  -->
<svg version="1.1" id="Capa_1" xmlns="http://www.w3.org/2000/svg" xmlns:xlink="http://www.w3.org/1999/xlink" x="0px" y="0px"
	 viewBox="-49 149 512 495" style="enable-background:new -49 149 512 495;" xml:space="preserve" width="60px">
<path fill="#edbd70" d="M453.001,269.149H345.872c12.188-22.37,12.735-49.754,0.355-73.151c-19.96-37.721-66.884-52.17-104.604-32.21
	c-11.839,6.264-23.25,19.656-34.638,40.72c-11.361-20.896-22.961-34.558-34.606-40.72c-18.273-9.669-39.215-11.644-58.973-5.56
	c-19.757,6.084-35.962,19.497-45.631,37.77c-12.38,23.396-11.833,50.78,0.355,73.151H-39c-5.523,0-10,4.478-10,10v98.653
	c0,5.523,4.477,10,10,10h15.128v218.133c0,18.362,14.939,33.302,33.302,33.302h395.143c18.363,0,33.302-14.939,33.302-33.302
	V387.803h15.127c5.523,0,10-4.477,10-10V279.15C463.001,273.627,458.524,269.149,453.001,269.149z M250.977,181.466
	c27.974-14.803,62.771-4.086,77.572,23.886c11.038,20.861,8.224,45.991-6.788,63.798h-87.943c-1.232-3.796-2.901-8.769-4.952-14.478
	c-0.007-0.02-0.014-0.04-0.021-0.06c-2.829-7.869-6.382-17.132-10.513-26.641c-0.007-0.017-0.014-0.033-0.021-0.049
	c-0.11-0.253-0.22-0.505-0.331-0.758C229.405,202.875,241.052,186.717,250.977,181.466z M266.71,367.803H147.292V289.15H266.71
	V367.803z M85.452,205.352c7.17-13.55,19.188-23.497,33.839-28.009c14.651-4.512,30.183-3.047,43.733,4.123
	c11.452,6.06,23.893,25.752,34.709,49.378c0.05,0.124,0.102,0.248,0.158,0.37c6.385,14.1,11.507,28.092,14.854,37.936H92.24
	C77.227,251.343,74.414,226.213,85.452,205.352z M127.292,289.149v29.326H-29v-29.326H127.292z M-29,338.476h156.292v29.327H-29
	V338.476z M-3.872,605.936V387.803h141.807v231.435H9.429C2.095,619.237-3.872,613.27-3.872,605.936z M217.001,619.237V452.669
	c0-5.522-4.477-10-10-10c-5.523,0-10,4.478-10,10v166.568h-39.066V387.803h98.133v231.435L217.001,619.237L217.001,619.237z
	 M417.874,605.936c0,7.335-5.967,13.302-13.302,13.302H276.067V387.803h141.807V605.936z M443.001,367.803H286.71v-29.327h89.553
	c5.523,0,10-4.478,10-10c0-5.523-4.477-10-10-10H286.71V289.15h156.291L443.001,367.803L443.001,367.803z"/>
<path fill="#edbd70" d="M216.23,409.463c-0.25-0.601-0.55-1.181-0.92-1.721c-0.36-0.55-0.78-1.06-1.24-1.52s-0.97-0.88-1.52-1.25
	c-0.54-0.36-1.12-0.67-1.72-0.92c-0.61-0.25-1.24-0.44-1.87-0.57c-1.29-0.26-2.62-0.26-3.91,0c-0.64,0.13-1.27,0.32-1.88,0.57
	c-0.6,0.25-1.18,0.56-1.72,0.92c-0.55,0.37-1.06,0.79-1.52,1.25s-0.88,0.97-1.24,1.52c-0.36,0.54-0.67,1.12-0.92,1.721
	c-0.25,0.609-0.45,1.239-0.57,1.88c-0.13,0.64-0.2,1.3-0.2,1.949c0,0.65,0.07,1.31,0.2,1.95c0.12,0.641,0.32,1.27,0.57,1.87
	c0.25,0.61,0.56,1.19,0.92,1.73c0.36,0.55,0.78,1.06,1.24,1.52s0.97,0.88,1.52,1.24c0.54,0.36,1.12,0.67,1.73,0.92
	c0.6,0.25,1.23,0.44,1.87,0.57s1.3,0.199,1.95,0.199s1.31-0.069,1.96-0.199c0.63-0.13,1.26-0.32,1.87-0.57
	c0.6-0.25,1.18-0.56,1.72-0.92c0.55-0.36,1.06-0.78,1.52-1.24s0.88-0.97,1.24-1.52c0.37-0.54,0.67-1.12,0.92-1.73
	c0.25-0.6,0.45-1.229,0.58-1.87c0.13-0.64,0.19-1.3,0.19-1.95c0-0.649-0.06-1.31-0.19-1.949
	C216.68,410.702,216.48,410.072,216.23,409.463z"/>
<path fill="#edbd70" d="M406.41,332.303c0.25,0.6,0.55,1.18,0.91,1.72c0.37,0.55,0.79,1.06,1.25,1.52c0.46,0.461,0.97,0.881,1.52,1.25
	c0.54,0.36,1.12,0.671,1.72,0.921c0.61,0.239,1.24,0.439,1.88,0.569s1.3,0.191,1.95,0.191c0.65,0,1.31-0.061,1.95-0.191
	c0.64-0.13,1.27-0.33,1.87-0.569c0.61-0.25,1.19-0.561,1.73-0.921c0.55-0.369,1.06-0.789,1.52-1.25c0.46-0.46,0.88-0.97,1.24-1.52
	c0.36-0.54,0.67-1.12,0.92-1.72c0.25-0.61,0.44-1.24,0.57-1.87c0.13-0.65,0.2-1.311,0.2-1.96c0-0.65-0.07-1.311-0.2-1.95
	c-0.13-0.64-0.32-1.27-0.57-1.87c-0.25-0.61-0.56-1.189-0.92-1.729c-0.36-0.551-0.78-1.061-1.24-1.521
	c-0.46-0.46-0.97-0.88-1.52-1.24c-0.54-0.359-1.12-0.67-1.73-0.92c-0.6-0.25-1.23-0.439-1.87-0.569c-1.29-0.261-2.62-0.261-3.91,0
	c-0.63,0.13-1.26,0.319-1.87,0.569c-0.6,0.25-1.18,0.561-1.72,0.92c-0.55,0.36-1.06,0.78-1.52,1.24c-0.46,0.46-0.88,0.97-1.25,1.521
	c-0.36,0.54-0.67,1.119-0.92,1.729c-0.25,0.601-0.44,1.23-0.57,1.87c-0.12,0.64-0.19,1.3-0.19,1.95c0,0.649,0.07,1.309,0.19,1.96
	C405.961,331.062,406.16,331.692,406.41,332.303z"/>
</svg>
