<?xml version="1.0" encoding="iso-8859-1"?>
<!-- Generator: Adobe Illustrator 22.1.0, SVG Export Plug-In . SVG Version: 6.00 Build 0)  -->
<svg version="1.1" id="Layer_1" xmlns="http://www.w3.org/2000/svg" xmlns:xlink="http://www.w3.org/1999/xlink" x="0px" y="0px"
	 viewBox="-49 215.206 512 396.529" style="enable-background:new -49 215.206 512 396.529;" xml:space="preserve" width="92px">
<path fill="#edbd70" d="M6.161,491.324c25.602,0,46.431-20.833,46.431-46.441c0-4.754-0.718-9.447-2.134-13.949
	c-1.665-5.291-7.303-8.23-12.59-6.564c-5.289,1.664-8.227,7.301-6.564,12.589c0.802,2.55,1.209,5.214,1.209,7.923
	c0,14.536-11.822,26.363-26.353,26.363c-14.536,0-26.363-11.826-26.363-26.363c0-14.532,11.826-26.353,26.363-26.353
	c2.618,0,5.201,0.382,7.677,1.132c5.306,1.61,10.912-1.384,12.523-6.689c1.61-5.306-1.384-10.912-6.69-12.523
	c-4.367-1.326-8.912-1.999-13.509-1.999c-25.608,0-46.441,20.829-46.441,46.431C-40.281,470.49-19.447,491.324,6.161,491.324z"/>
<path fill="#edbd70" d="M452.961,536.953c-5.545,0-10.039,4.496-10.039,10.039v8.031c0,5.544,4.495,10.039,10.039,10.039
	c5.545,0,10.039-4.496,10.039-10.039v-8.031C463,541.448,458.505,536.953,452.961,536.953z"/>
<path fill="#edbd70" d="M452.961,403.431H116.553c25.898-18.966,42.752-49.589,42.752-84.078c0-57.426-46.721-104.147-104.147-104.147
	C-2.275,215.206-49,261.926-49,319.353v188.235c0,57.426,46.725,104.147,104.157,104.147h397.804
	c5.545,0,10.039-4.496,10.039-10.039v-16.555c0-5.544-4.495-10.039-10.039-10.039c-5.545,0-10.039,4.496-10.039,10.039v6.515
	h-80.314V423.509h80.314v93.365c0,5.544,4.495,10.039,10.039,10.039c5.545,0,10.039-4.496,10.039-10.039V413.47
	C463,407.927,458.505,403.431,452.961,403.431z M55.157,235.284c46.355,0,84.068,37.712,84.068,84.068
	c0,46.361-37.713,84.078-84.068,84.078c-46.361,0-84.078-37.717-84.078-84.078C-28.922,272.996,8.796,235.284,55.157,235.284z
	 M31.986,588.383v-11.786c0-5.544-4.495-10.039-10.039-10.039s-10.039,4.496-10.039,10.039v3.053
	c-24.442-14.721-40.829-41.511-40.829-72.063V380.753c18.966,25.901,49.589,42.756,84.078,42.756h11.625v26.815
	c0,5.544,4.495,10.039,10.039,10.039s10.039-4.496,10.039-10.039v-26.815h89.69v26.815c0,5.544,4.495,10.039,10.039,10.039
	s10.039-4.496,10.039-10.039v-26.815h89.68v26.815c0,5.544,4.495,10.039,10.039,10.039s10.039-4.496,10.039-10.039v-26.815h36.141
	v168.147h-36.141v-26.815c0-5.544-4.495-10.039-10.039-10.039s-10.039,4.496-10.039,10.039v26.815h-34.806v-8.384
	c0-5.544-4.495-10.039-10.039-10.039c-5.545,0-10.039,4.496-10.039,10.039v8.384h-34.796v-26.815
	c0-5.544-4.495-10.039-10.039-10.039s-10.039,4.496-10.039,10.039v26.815h-34.806v-8.384c0-5.544-4.495-10.039-10.039-10.039
	c-5.545,0-10.039,4.496-10.039,10.039v8.384H86.861v-26.815c0-5.544-4.495-10.039-10.039-10.039s-10.039,4.496-10.039,10.039v26.815
	H55.157C47.119,591.656,39.352,590.5,31.986,588.383z"/>
<path fill="#edbd70" d="M375.659,507.588c0,14.946,12.159,27.106,27.106,27.106s27.106-12.159,27.106-27.106c0-14.946-12.16-27.106-27.106-27.106
	S375.659,492.641,375.659,507.588z M409.792,507.588c0,3.874-3.152,7.027-7.027,7.027s-7.027-3.153-7.027-7.027
	s3.152-7.027,7.027-7.027S409.792,503.714,409.792,507.588z"/>
</svg>
