<?xml version="1.0" encoding="iso-8859-1"?>
<!-- Generator: Adobe Illustrator 22.1.0, SVG Export Plug-In . SVG Version: 6.00 Build 0)  -->
<svg version="1.1" id="Layer_1" xmlns="http://www.w3.org/2000/svg" xmlns:xlink="http://www.w3.org/1999/xlink" x="0px" y="0px"
	 viewBox="-49 141 512 512" style="enable-background:new -49 141 512 512;" xml:space="preserve" width="90px">
<path fill="#edbd70" d="M265.081,219.2c3.976,2.012,8.83,0.414,10.84-3.563c2.01-3.977,0.415-8.83-3.563-10.84
	c-56.318-28.458-124.159-17.577-168.81,27.075c-51.895,51.894-57.089,134.64-12.081,192.474c1.591,2.044,3.969,3.114,6.373,3.114
	c1.732,0,3.477-0.555,4.95-1.702c3.517-2.737,4.149-7.806,1.413-11.323c-40.019-51.422-35.394-125.002,10.757-171.153
	C154.669,203.571,214.997,193.893,265.081,219.2z"/>
<path fill="#edbd70" d="M325.948,265.675c-3.977,2.009-5.574,6.861-3.565,10.84c25.289,50.076,15.606,110.396-24.095,150.096
	c-46.152,46.15-119.731,50.774-171.153,10.757c-3.518-2.736-8.586-2.104-11.323,1.413c-2.737,3.517-2.104,8.586,1.413,11.323
	c26.344,20.501,57.855,30.586,89.266,30.586c37.548,0,74.952-14.411,103.209-42.668c44.64-44.64,55.526-112.468,27.089-168.781
	C334.779,265.263,329.927,263.668,325.948,265.675z"/>
<path fill="#edbd70" d="M292.374,237.721c2.015,1.78,4.005,3.652,5.915,5.561c1.908,1.91,3.78,3.899,5.561,5.914
	c1.594,1.804,3.816,2.725,6.049,2.725c1.899,0,3.805-0.667,5.34-2.022c3.339-2.951,3.653-8.049,0.703-11.388
	c-1.999-2.262-4.099-4.496-6.242-6.638c-2.143-2.143-4.376-4.243-6.638-6.242c-3.339-2.952-8.439-2.636-11.388,0.702
	C288.721,229.67,289.035,234.77,292.374,237.721z"/>
<path fill="#edbd70" d="M397.065,320.795l-10.615-17.408c-1.399-2.294-1.939-5.018-1.521-7.67l3.164-20.103
	c1.613-10.245-2.596-20.398-10.982-26.499l-16.451-11.966c-2.175-1.583-3.721-3.892-4.354-6.506l-4.791-19.799
	c-2.432-10.057-10.191-17.815-20.247-20.249l-19.8-4.792c-2.614-0.633-4.925-2.178-6.506-4.354l-11.968-16.455
	c-6.1-8.386-16.254-12.597-26.496-10.983l-20.11,3.164c-2.652,0.417-5.377-0.123-7.669-1.521l-17.411-10.616
	c-8.826-5.382-19.79-5.381-28.616,0l-17.407,10.615c-2.293,1.399-5.015,1.938-7.67,1.521l-20.105-3.164
	c-10.242-1.612-20.397,2.597-26.497,10.983l-11.966,16.451c-1.582,2.175-3.893,3.721-6.507,4.354l-19.799,4.791
	c-10.055,2.432-17.815,10.191-20.249,20.247l-4.792,19.8c-0.633,2.614-2.178,4.925-4.354,6.506l-16.455,11.968
	c-8.386,6.099-12.594,16.251-10.983,26.496l3.164,20.111c0.417,2.653-0.123,5.377-1.521,7.669l-10.617,17.411
	c-5.38,8.826-5.38,19.79,0.001,28.615l10.615,17.407c1.399,2.294,1.939,5.018,1.521,7.67l-3.164,20.105
	c-1.613,10.244,2.596,20.398,10.982,26.498l16.451,11.966c2.175,1.581,3.721,3.892,4.354,6.506l4.791,19.799
	c2.432,10.057,10.191,17.815,20.247,20.249l8.268,2.001L35.047,606.427c-1.189,2.653-0.86,5.739,0.863,8.081
	c1.722,2.342,4.569,3.577,7.457,3.231l45.022-5.383l25.936,37.191c1.518,2.175,3.996,3.453,6.616,3.453
	c0.251,0,0.505-0.012,0.757-0.035c2.894-0.272,5.419-2.081,6.608-4.732l57.145-127.479l7.241,4.415
	c4.413,2.691,9.361,4.036,14.308,4.036c4.948,0,9.895-1.346,14.308-4.036l7.502-4.574l57.217,127.638
	c1.189,2.653,3.713,4.46,6.608,4.732c0.253,0.024,0.506,0.036,0.757,0.036c2.621,0,5.099-1.278,6.616-3.453l25.936-37.191
	l45.022,5.383c2.886,0.343,5.735-0.889,7.457-3.231c1.722-2.342,2.053-5.428,0.863-8.081l-55.983-124.883l7.957-1.925
	c10.055-2.432,17.815-10.191,20.249-20.247l4.792-19.8c0.633-2.614,2.178-4.925,4.354-6.506l16.455-11.968
	c8.386-6.099,12.594-16.251,10.983-26.496l-3.164-20.111c-0.417-2.653,0.123-5.377,1.521-7.669l10.617-17.411l0,0
	C402.448,340.584,402.448,329.62,397.065,320.795z M119.41,628.628l-20.554-29.474c-1.704-2.444-4.618-3.752-7.576-3.396
	l-35.679,4.266l50.979-113.723c0.932,0.685,1.768,1.506,2.457,2.455l11.968,16.455c1.137,1.563,2.415,2.98,3.808,4.242
	L97.981,569.31c-1.822,4.067-0.004,8.84,4.062,10.663c1.071,0.481,2.192,0.708,3.295,0.708c3.082,0,6.026-1.776,7.367-4.77
	l26.738-59.644c2.631,0.361,5.34,0.355,8.059-0.073l20.11-3.164c1.204-0.189,2.421-0.172,3.606,0.024L119.41,628.628z
	 M323.054,595.758c-2.961-0.355-5.872,0.952-7.576,3.396l-20.554,29.474l-51.829-115.619c1.087-0.148,2.196-0.148,3.293,0.024
	l20.103,3.164c2.829,0.445,5.648,0.431,8.379,0.024l26.758,59.692c1.343,2.995,4.285,4.77,7.367,4.77
	c1.103,0,2.224-0.227,3.295-0.708c4.067-1.822,5.885-6.597,4.062-10.663l-26.935-60.085c1.298-1.206,2.5-2.541,3.571-4.013
	l11.966-16.451c0.754-1.037,1.678-1.926,2.716-2.645l51.062,113.906L323.054,595.758z M383.289,341.009l-10.617,17.411
	c-3.386,5.554-4.695,12.152-3.684,18.578l3.164,20.11c0.665,4.229-1.073,8.42-4.534,10.938l-16.456,11.969
	c-5.267,3.832-9.013,9.429-10.545,15.76l-4.792,19.8c-1.005,4.152-4.207,7.354-8.359,8.359l-19.8,4.791
	c-6.332,1.532-11.93,5.278-15.762,10.546l-11.966,16.451c-2.518,3.463-6.708,5.199-10.939,4.533l-20.104-3.164
	c-6.427-1.011-13.026,0.297-18.581,3.684l-17.407,10.615c-3.643,2.22-8.171,2.22-11.812,0l-17.411-10.616
	c-4.33-2.641-9.294-4.017-14.317-4.017c-1.42,0-2.847,0.11-4.262,0.333l-20.111,3.164c-4.23,0.666-8.42-1.073-10.938-4.534
	l-11.969-16.455c-3.832-5.267-9.429-9.013-15.76-10.545l-19.8-4.792c-4.152-1.005-7.354-4.207-8.359-8.359l-4.791-19.799
	c-1.532-6.332-5.277-11.931-10.546-15.763L46.38,408.04c-3.462-2.518-5.199-6.71-4.533-10.939l3.164-20.104
	c1.011-6.427-0.297-13.025-3.684-18.58l-10.615-17.409c-2.222-3.643-2.222-8.17,0-11.812l10.617-17.411
	c3.386-5.554,4.695-12.152,3.684-18.578l-3.164-20.11c-0.665-4.229,1.073-8.42,4.534-10.938L62.84,250.19
	c5.267-3.832,9.013-9.429,10.545-15.76l4.792-19.8c1.005-4.152,4.207-7.354,8.359-8.359l19.8-4.791
	c6.332-1.532,11.93-5.278,15.762-10.546l11.966-16.451c2.518-3.462,6.708-5.201,10.939-4.534l20.105,3.164
	c6.428,1.013,13.027-0.297,18.581-3.684l17.407-10.615c3.643-2.22,8.171-2.22,11.812,0l17.411,10.616
	c5.554,3.388,12.154,4.697,18.579,3.685l20.111-3.164c4.228-0.663,8.42,1.073,10.938,4.534l11.969,16.455
	c3.832,5.267,9.429,9.013,15.76,10.545l19.8,4.792c4.152,1.005,7.354,4.207,8.359,8.359l4.791,19.799
	c1.532,6.332,5.277,11.931,10.546,15.763l16.451,11.966c3.462,2.518,5.199,6.71,4.533,10.939l-3.164,20.105
	c-1.011,6.427,0.297,13.025,3.684,18.58l10.615,17.409C385.51,332.839,385.51,337.366,383.289,341.009z"/>
<path fill="#edbd70" d="M116.549,325.207l35.895,33.195l-9.528,47.954c-1.121,5.646,1.075,11.254,5.732,14.636c2.569,1.866,5.55,2.811,8.55,2.811
	c2.439,0,4.889-0.624,7.14-1.884L207,398.039l42.662,23.879c5.023,2.812,11.034,2.457,15.69-0.926
	c4.657-3.383,6.853-8.992,5.731-14.637l-9.528-47.953l35.895-33.195c4.226-3.907,5.746-9.736,3.968-15.21
	c-1.778-5.474-6.433-9.296-12.149-9.974l-48.551-5.757l-20.478-44.395c-2.411-5.226-7.484-8.473-13.24-8.473
	s-10.829,3.247-13.24,8.473l-20.478,44.396l-48.551,5.757c-5.716,0.678-10.372,4.5-12.149,9.974
	C110.804,315.471,112.324,321.299,116.549,325.207z M179.667,309.76c2.786-0.33,5.201-2.085,6.377-4.632L207,259.697l20.955,45.431
	c1.176,2.547,3.59,4.302,6.377,4.632l49.684,5.891l-36.733,33.969c-2.06,1.905-2.982,4.744-2.436,7.496l9.75,49.071l-43.658-24.437
	c-1.224-0.685-2.582-1.028-3.941-1.028s-2.716,0.342-3.941,1.028L159.4,406.188l9.75-49.071c0.548-2.753-0.375-5.591-2.436-7.496
	l-36.733-33.969L179.667,309.76z"/>
</svg>
