<?xml version="1.0" encoding="iso-8859-1"?>
<!-- Generator: Adobe Illustrator 22.1.0, SVG Export Plug-In . SVG Version: 6.00 Build 0)  -->
<svg version="1.1" id="&#x421;&#x43B;&#x43E;&#x439;_1"
	 xmlns="http://www.w3.org/2000/svg" xmlns:xlink="http://www.w3.org/1999/xlink" x="0px" y="0px" viewBox="0 0 344.5 358.5"
	 style="enable-background:new 0 0 344.5 358.5;" xml:space="preserve">
<g>
	<g>
		<path d="M326.18,70.51l5.79-5.64c6.67-6.49,10.33-15.19,10.32-24.48c-0.02-9.31-3.71-17.99-10.4-24.45
			c-6.69-6.47-15.51-9.86-24.78-9.56c-9.3,0.3-17.86,4.26-24.12,11.14l-4.35,4.79l-4.42-4.43C264.04,7.7,250.51,2.09,236.11,2.09
			c-14.41,0-27.94,5.61-38.11,15.79c-10.18,10.18-15.79,23.71-15.79,38.1c0,14.4,5.61,27.94,15.79,38.12l8.05,8.06l-15.16,16.68
			c-19.72,21.7-39.54,44.17-58.9,66.78l-1.05,1.23l-20.91-20.92c-9.5-9.5-22.13-14.73-35.57-14.73c-13.43,0-26.06,5.23-35.56,14.73
			s-14.73,22.13-14.73,35.57s5.23,26.07,14.73,35.57l27.67,27.67l-0.84,1.05c-21.27,26.64-42.11,53.67-61.94,80.33
			c-1.95,2.61-1.65,6.29,0.69,8.55c1.22,1.18,2.83,1.83,4.52,1.83c1.47,0,2.91-0.5,4.06-1.42c25.84-20.63,51.98-42.24,77.68-64.21
			l1.05-0.9l26.02,26.01c1.23,1.23,2.86,1.91,4.6,1.91c1.74,0,3.37-0.68,4.59-1.91c1.23-1.22,1.91-2.86,1.91-4.59
			c0-1.74-0.68-3.37-1.9-4.6l-25.33-25.32l1.22-1.06c18.07-15.61,36.13-31.6,53.69-47.51l1.06-0.96l31.01,31.01
			c13.13,13.13,30.58,20.35,49.14,20.35c18.57,0,36.02-7.22,49.14-20.35c13.13-13.12,20.36-30.57,20.36-49.14
			c0-18.56-7.23-36.01-20.36-49.14l-28.37-28.37l58.21-56.65l0.97,1.66c2.86,4.91,4.38,10.53,4.38,16.26
			c0,8.63-3.36,16.75-9.47,22.86l-2.57,2.58c-2.54,2.53-2.53,6.65,0,9.19c1.22,1.22,2.86,1.9,4.59,1.9c1.74,0,3.38-0.68,4.6-1.91
			l2.57-2.57c8.56-8.56,13.28-19.94,13.28-32.05c0-9.39-2.84-18.39-8.22-26.01L326.18,70.51z M195.21,55.98
			c0-10.92,4.26-21.19,11.98-28.91c7.72-7.73,17.99-11.98,28.92-11.98c10.92,0,21.19,4.25,28.91,11.98l4.87,4.86l-55.08,60.6
			l-7.62-7.62C199.47,77.19,195.21,66.92,195.21,55.98z M48.09,227.88c-7.04-7.05-10.92-16.41-10.92-26.38
			c0-9.97,3.88-19.33,10.92-26.37c7.05-7.05,16.41-10.93,26.37-10.93c9.97,0,19.33,3.88,26.38,10.93l21.65,21.65l-0.89,1.05
			c-15.38,18.17-30.79,36.81-45.8,55.41l-1.05,1.3L48.09,227.88z M147.28,223.79c-29.39,26.63-59.6,52.93-89.78,78.18l-10.84,9.06
			l8.69-11.13c24.3-31.15,49.64-62.32,75.31-92.65l1.05-1.25l16.73,16.73L147.28,223.79z M277.75,173.86
			c10.67,10.67,16.55,24.86,16.55,39.95c0,15.09-5.88,29.28-16.55,39.95c-10.67,10.66-24.85,16.54-39.95,16.54
			c-15.09,0-29.28-5.88-39.95-16.54l-30.58-30.59l1.15-1.05c22.15-20.29,44.16-41.07,65.42-61.76l15.41-14.99L277.75,173.86z
			 M224.78,151.04c-21.24,20.66-43.32,41.51-65.65,61.96l-1.06,0.97l-17.9-17.9l0.9-1.06c19.57-22.88,39.57-45.57,59.44-67.43
			l78.58-86.44l9.87,9.86L271.7,68.86c-2.49,2.58-2.42,6.7,0.16,9.2c1.21,1.17,2.82,1.82,4.51,1.82c1.78,0,3.44-0.7,4.68-1.98
			l33.21-34.36c2.49-2.58,2.42-6.7-0.16-9.19c-2.58-2.49-6.7-2.42-9.19,0.15L298,41.66l-10.16-10.15l4.77-5.25
			c3.87-4.25,9.17-6.7,14.92-6.88c5.71-0.21,11.21,1.93,15.33,5.91c4.13,3.99,6.42,9.36,6.43,15.12c0.01,5.75-2.26,11.13-6.38,15.14
			L224.78,151.04z"/>
	</g>
</g>
</svg>
