<?xml version="1.0" encoding="iso-8859-1"?>
<!-- Generator: Adobe Illustrator 22.1.0, SVG Export Plug-In . SVG Version: 6.00 Build 0)  -->
<svg version="1.1" id="&#x421;&#x43B;&#x43E;&#x439;_1"
	 xmlns="http://www.w3.org/2000/svg" xmlns:xlink="http://www.w3.org/1999/xlink" x="0px" y="0px" viewBox="0 0 32.688 32.563"
	 style="enable-background:new 0 0 32.688 32.563;" xml:space="preserve" width="22px">
<g>
	<g>
		<defs>
			<rect id="SVGID_1_" x="0.313" y="-0.75" width="32" height="33"/>
		</defs>
		<clipPath id="SVGID_2_">
			<use xlink:href="#SVGID_1_"  style="overflow:visible;"/>
		</clipPath>
		<path style="clip-path:url(#SVGID_2_);" d="M30.171,8.249C25.753,0.596,15.968-2.029,8.316,2.393
			C0.664,6.807-1.961,16.596,2.46,24.249c4.414,7.652,14.204,10.273,21.856,5.855C31.969,25.686,34.589,15.901,30.171,8.249
			L30.171,8.249z M22.714,27.331c-6.121,3.535-13.949,1.437-17.484-4.684C1.695,16.526,3.792,8.698,9.914,5.163
			c6.121-3.535,13.953-1.438,17.484,4.683C30.934,15.968,28.835,23.796,22.714,27.331L22.714,27.331z M22.074,15.596l-8.379-4.886
			c-0.762-0.446-1.379-0.09-1.375,0.793l0.043,9.699c0.004,0.887,0.629,1.246,1.394,0.801l8.313-4.801
			C22.835,16.761,22.84,16.042,22.074,15.596L22.074,15.596z M22.074,15.596"/>
	</g>
</g>
</svg>
