<?xml version="1.0" encoding="iso-8859-1"?>
<!-- Generator: Adobe Illustrator 22.1.0, SVG Export Plug-In . SVG Version: 6.00 Build 0)  -->
<svg version="1.1" id="&#x421;&#x43B;&#x43E;&#x439;_1"
	 xmlns="http://www.w3.org/2000/svg" xmlns:xlink="http://www.w3.org/1999/xlink" x="0px" y="0px" viewBox="0 0 25.212 17.793"
	 style="enable-background:new 0 0 25.212 17.793;" xml:space="preserve" width="27px">
<g>
	<g>
		<defs>
			<rect id="SVGID_1_" y="0.043" width="25.92" height="18"/>
		</defs>
		<clipPath id="SVGID_2_">
			<use xlink:href="#SVGID_1_"  style="overflow:visible;"/>
		</clipPath>
		<path style="clip-path:url(#SVGID_2_);fill:#ffffff;" d="M16.965,0.309c-0.344-0.355-0.914-0.355-1.27,0
			c-0.343,0.344-0.343,0.914,0,1.258l6.438,6.437H0.891C0.395,8.004,0,8.399,0,8.895c0,0.492,0.395,0.902,0.891,0.902h21.242
			l-6.438,6.422c-0.343,0.356-0.343,0.93,0,1.27c0.356,0.355,0.926,0.355,1.27,0l7.961-7.961c0.355-0.344,0.355-0.914,0-1.254
			L16.965,0.309z M16.965,0.309"/>
	</g>
</g>
</svg>