<?xml version="1.0" encoding="iso-8859-1"?>
<!-- Generator: Adobe Illustrator 22.1.0, SVG Export Plug-In . SVG Version: 6.00 Build 0)  -->
<svg version="1.1" id="Layer_1" xmlns="http://www.w3.org/2000/svg" xmlns:xlink="http://www.w3.org/1999/xlink" x="0px" y="0px"
	 viewBox="-49 174.75 512 443.341" style="enable-background:new -49 174.75 512 443.341;" xml:space="preserve" width="94px">
<path fill="#edbd70" d="M160.455,362.091c0-19.782-15.127-34.909-34.909-34.909s-34.909,15.127-34.909,34.909S105.764,397,125.545,397
	S160.455,381.873,160.455,362.091z M113.909,362.091c0-6.982,4.655-11.636,11.636-11.636c6.982,0,11.636,4.655,11.636,11.636
	s-4.655,11.636-11.636,11.636C118.564,373.727,113.909,369.073,113.909,362.091z"/>
<path fill="#edbd70" d="M125.545,490.091c0,19.782,15.127,34.909,34.909,34.909s34.909-15.127,34.909-34.909s-15.127-34.909-34.909-34.909
	S125.545,470.309,125.545,490.091z M172.091,490.091c0,6.982-4.655,11.636-11.636,11.636c-6.982,0-11.636-4.655-11.636-11.636
	c0-6.982,4.655-11.636,11.636-11.636C167.436,478.455,172.091,483.109,172.091,490.091z"/>
<path fill="#edbd70" d="M203.509,365.582c-4.655-4.655-11.636-4.655-16.291,0L82.491,470.309c-4.655,4.655-4.655,11.636,0,16.291
	c2.327,2.327,5.818,3.491,8.145,3.491s5.818-1.164,8.145-3.491l104.727-104.727C208.164,377.218,208.164,370.236,203.509,365.582z"
	/>
<path fill="#edbd70" d="M463,199.182c0-6.982-4.655-11.636-11.636-11.636s-11.636,4.655-11.636,11.636c0,32.582-25.6,58.182-58.182,58.182h-69.818
	c-6.982,0-11.636,4.655-11.636,11.636s4.655,11.636,11.636,11.636h8.145c-3.491,6.982-11.636,11.636-19.782,11.636
	c-12.8,0-23.273-10.473-23.273-23.273c0-12.8,10.473-23.273,23.273-23.273c6.982,0,11.636-4.655,11.636-11.636
	s-4.655-11.636-11.636-11.636c-25.6,0-46.545,20.945-46.545,46.545s20.945,46.545,46.545,46.545
	c22.109,0,39.564-15.127,45.382-34.909h24.436v53.527c0,15.127-5.818,29.091-16.291,39.564l-204.8,216.436L-21.073,431.909
	L194.2,216.636c11.636-11.636,25.6-17.455,41.891-17.455h133.818v23.273c0,6.982,4.655,11.636,11.636,11.636
	s11.636-4.655,11.636-11.636v-34.909c0-6.982-4.655-11.636-11.636-11.636H236.091c-22.109,0-41.891,8.145-57.018,24.436
	L-45.509,423.764c-2.327,2.327-3.491,4.655-3.491,8.145c0,3.491,1.164,5.818,3.491,8.145L140.673,614.6
	c2.327,2.327,4.655,3.491,8.145,3.491c3.491,0,5.818-1.164,8.145-3.491l212.945-224.582c13.964-15.127,22.109-34.909,22.109-55.855
	v-54.691C432.745,273.655,463,239.909,463,199.182z"/>
</svg>
