<?xml version="1.0" encoding="iso-8859-1"?>
<!-- Generator: Adobe Illustrator 22.1.0, SVG Export Plug-In . SVG Version: 6.00 Build 0)  -->
<svg version="1.1" id="&#x421;&#x43B;&#x43E;&#x439;_1"
	 xmlns="http://www.w3.org/2000/svg" xmlns:xlink="http://www.w3.org/1999/xlink" x="0px" y="0px" viewBox="0 0 16.25 16.313"
	 style="enable-background:new 0 0 16.25 16.313;" xml:space="preserve">
<g>
	<path d="M15.275,8.156c-0.4,0-0.75,0.29-0.79,0.68c-0.379,3.515-3.615,6.191-7.318,5.647c-2.622-0.385-4.791-2.431-5.31-5.029
		C1.041,5.371,4.182,1.756,8.125,1.756c0.301,0,0.585,0.018,0.859,0.053C9.463,1.871,9.885,1.51,9.885,1.027v0
		c0-0.403-0.302-0.738-0.702-0.794C8.832,0.185,8.478,0.156,8.125,0.156c-4.93,0-8.85,4.52-7.84,9.61c0.62,3.11,3.12,5.61,6.23,6.23
		c4.78,0.95,9.05-2.45,9.56-6.94C16.125,8.576,15.755,8.156,15.275,8.156z M14.765,2.796c-0.16-0.16-0.36-0.23-0.56-0.23
		s-0.4,0.07-0.56,0.23l-6.32,6.32l-1.92-1.92c-0.31-0.31-0.81-0.31-1.12,0s-0.31,0.81,0,1.12l2.39,2.39c0.36,0.36,0.94,0.36,1.3,0
		l6.79-6.79C15.075,3.606,15.075,3.106,14.765,2.796z"/>
</g>
</svg>
